# xmcd
#
# Track frame offsets: 
#        150
#        22287
#        39384
#        64238
#        88993
#        119204
#        135952
#        174875
#        195482
#        215691
#        233309
#
# Disc length: 3511 seconds
#
# Revision: 0
# Processed by: cddbd v1.5.2PL0 Copyright (c) Steve Scherf et al.
# Submitted via: ExactAudioCopyFreeDBPlugin 1.0
#
DISCID=980db50b
DTITLE=Rockin' Johnny Burgin - Greetings From Greaseland, California
DYEAR=2015
DGENRE=Blues
TTITLE0=Love Me Like I Want It
TTITLE1=Cold Chills
TTITLE2=She's A Hit
TTITLE3=The Western Horizon
TTITLE4=Telephone Angel
TTITLE5=The House Of The Rising Sun
TTITLE6=Empty Bed Blues
TTITLE7=Tribute To Big John Wrencher
TTITLE8=Havana Rock
TTITLE9=Homework
TTITLE10=Tell The World I Do
EXTD=
EXTT0=
EXTT1=
EXTT2=
EXTT3=
EXTT4=
EXTT5=
EXTT6=
EXTT7=
EXTT8=
EXTT9=
EXTT10=
PLAYORDER=
